<svg xmlns="http://www.w3.org/2000/svg" viewBox="0 0 512 512" role="img" aria-labelledby="title desc">
  <title id="title">Random Walker icon</title>
  <desc id="desc">A pink rounded square with an RW monogram, a wandering route line, and a rabbit mascot.</desc>
  <defs>
    <linearGradient id="background" x1="84" y1="56" x2="432" y2="456" gradientUnits="userSpaceOnUse">
      <stop offset="0" stop-color="#fffafd"/>
      <stop offset="0.55" stop-color="#fff2f8"/>
      <stop offset="1" stop-color="#ffe8d6"/>
    </linearGradient>
    <linearGradient id="route" x1="104" y1="346" x2="414" y2="176" gradientUnits="userSpaceOnUse">
      <stop offset="0" stop-color="#4fb8a8"/>
      <stop offset="1" stop-color="#ea5a98"/>
    </linearGradient>
  </defs>
  <rect x="32" y="32" width="448" height="448" rx="108" fill="url(#background)"/>
  <rect x="47" y="47" width="418" height="418" rx="94" fill="none" stroke="#efc7d9" stroke-width="20"/>
  <path d="M118 350c44-80 94 38 142-40 38-62 88-152 142-90" fill="none" stroke="#fffafd" stroke-width="46" stroke-linecap="round"/>
  <path d="M118 350c44-80 94 38 142-40 38-62 88-152 142-90" fill="none" stroke="url(#route)" stroke-width="28" stroke-linecap="round"/>
  <circle cx="118" cy="350" r="28" fill="#ea5a98" stroke="#fffafd" stroke-width="14"/>
  <text x="250" y="318" text-anchor="middle" font-family="Avenir Next, Arial Rounded MT Bold, Arial, sans-serif" font-size="156" font-weight="900" letter-spacing="0" fill="#4b2b3c" stroke="#fffafd" stroke-width="14" paint-order="stroke">RW</text>
  <g aria-label="Rabbit mascot">
    <ellipse cx="374" cy="160" rx="22" ry="54" transform="rotate(-18 374 160)" fill="#fffafd" stroke="#efc7d9" stroke-width="11"/>
    <ellipse cx="420" cy="163" rx="22" ry="55" transform="rotate(18 420 163)" fill="#fffafd" stroke="#efc7d9" stroke-width="11"/>
    <ellipse cx="374" cy="163" rx="8" ry="34" transform="rotate(-18 374 163)" fill="#ffd5e6"/>
    <ellipse cx="420" cy="166" rx="8" ry="35" transform="rotate(18 420 166)" fill="#ffd5e6"/>
    <circle cx="397" cy="226" r="48" fill="#fffafd" stroke="#efc7d9" stroke-width="12"/>
    <circle cx="378" cy="218" r="6" fill="#4b2b3c"/>
    <circle cx="416" cy="218" r="6" fill="#4b2b3c"/>
    <path d="M397 229l-8 8h16z" fill="#ea5a98"/>
    <path d="M389 245c7 6 12 6 16 0" fill="none" stroke="#4b2b3c" stroke-width="5" stroke-linecap="round"/>
    <circle cx="361" cy="235" r="11" fill="#ffe2ec"/>
    <circle cx="433" cy="235" r="11" fill="#ffe2ec"/>
  </g>
</svg>
